# xmcd
#
# Track frame offsets:
#	150
#	9511
#	23118
#	39832
#	57573
#	76277
#	92596
#	101562
#	121758
#	139590
#	162333
#	183893
#	200315
#	217863
#	235015
#	253357
#	274578
#	292488
#
# Disc length: 4291 seconds
#
# Revision: 119365133
# Processed by: cddbd v1.5.1PL0 Copyright (c) Steve Scherf et al.
# Submitted via: EasyCDDAExtractor 8.0.2.1
#
DISCID=f210c112
DTITLE=Kelly Price - Priceless
DYEAR=2003
DGENRE=R&B
TTITLE0=Introlude (The Pricey Bunch)
TTITLE1=Someday
TTITLE2=You Make Me Feel
TTITLE3=Take It To The Head (Featuring Keith Murray)
TTITLE4=Sister (Featuring Faith Evans)
TTITLE5=Again
TTITLE6=Priceless (Interlude)
TTITLE7=Strong Man (Jeff In C Minor)
TTITLE8=How Does It Feel (Married Your Girl)
TTITLE9=He Proposed
TTITLE10=So Sweet
TTITLE11=Whatcha Gon Do
TTITLE12=I Live Here Now
TTITLE13=Girlfriend
TTITLE14=If
TTITLE15=Back In The Day
TTITLE16=I Still Do
TTITLE17=You Brought The Sunshine (Featuring The Clark Sisters)
EXTD=
EXTT0=
EXTT1=
EXTT2=
EXTT3=
EXTT4=
EXTT5=
EXTT6=
EXTT7=
EXTT8=
EXTT9=
EXTT10=
EXTT11=
EXTT12=
EXTT13=
EXTT14=
EXTT15=
EXTT16=
EXTT17=
PLAYORDER=
